<mxfile host="app.diagrams.net" modified="2024-07-03T06:22:13.963Z" agent="Mozilla/5.0 (Macintosh; Intel Mac OS X 10_15_7) AppleWebKit/537.36 (KHTML, like Gecko) Chrome/126.0.0.0 Safari/537.36" version="24.4.13" etag="NXgAgKv4RRAxRBUe2rco" type="github">
  <diagram name="第 1 页" id="2ZFmcioKw8teNFCDW0Zp">
    <mxGraphModel>
      <root>
        <mxCell id="0" />
        <mxCell id="1" parent="0" />
      </root>
    </mxGraphModel>
  </diagram>
</mxfile>
